<mxfile host="app.diagrams.net" modified="2021-09-06T11:18:44.967Z" agent="5.0 (Windows NT 10.0; Win64; x64) AppleWebKit/537.36 (KHTML, like Gecko) Chrome/91.0.4472.124 Safari/537.36" etag="GlKcAnyJjXplyTKPeXLf" version="15.0.6" type="github" pages="2">
  <diagram id="dtXTNnCRT1JeaTBHfS76" name="springboot">
    <mxGraphModel dx="868" dy="492" grid="0" gridSize="10" guides="1" tooltips="1" connect="1" arrows="1" fold="1" page="1" pageScale="1" pageWidth="827" pageHeight="1169" math="0" shadow="0">
      <root>
        <mxCell id="0" />
        <mxCell id="1" parent="0" />
        <mxCell id="5PS4r9_0_upMB3MBfYGu-2" style="edgeStyle=orthogonalEdgeStyle;rounded=0;orthogonalLoop=1;jettySize=auto;html=1;exitX=1;exitY=0.5;exitDx=0;exitDy=0;entryX=0;entryY=0.5;entryDx=0;entryDy=0;" parent="1" source="5PS4r9_0_upMB3MBfYGu-1" target="5PS4r9_0_upMB3MBfYGu-3" edge="1">
          <mxGeometry relative="1" as="geometry">
            <mxPoint x="189" y="120" as="targetPoint" />
          </mxGeometry>
        </mxCell>
        <mxCell id="5PS4r9_0_upMB3MBfYGu-4" style="edgeStyle=orthogonalEdgeStyle;rounded=0;orthogonalLoop=1;jettySize=auto;html=1;exitX=1;exitY=0.5;exitDx=0;exitDy=0;" parent="1" source="5PS4r9_0_upMB3MBfYGu-1" edge="1">
          <mxGeometry relative="1" as="geometry">
            <mxPoint x="239" y="180" as="targetPoint" />
          </mxGeometry>
        </mxCell>
        <mxCell id="5PS4r9_0_upMB3MBfYGu-8" style="edgeStyle=orthogonalEdgeStyle;rounded=0;orthogonalLoop=1;jettySize=auto;html=1;exitX=1;exitY=0.5;exitDx=0;exitDy=0;entryX=0;entryY=0.5;entryDx=0;entryDy=0;" parent="1" source="5PS4r9_0_upMB3MBfYGu-1" target="5PS4r9_0_upMB3MBfYGu-7" edge="1">
          <mxGeometry relative="1" as="geometry">
            <Array as="points">
              <mxPoint x="209" y="180" />
              <mxPoint x="209" y="225" />
            </Array>
          </mxGeometry>
        </mxCell>
        <mxCell id="5PS4r9_0_upMB3MBfYGu-1" value="@SpringBootAppliction" style="rounded=1;whiteSpace=wrap;html=1;" parent="1" vertex="1">
          <mxGeometry x="19" y="165" width="140" height="30" as="geometry" />
        </mxCell>
        <mxCell id="5PS4r9_0_upMB3MBfYGu-3" value="@SpringBootConfiguration" style="rounded=1;whiteSpace=wrap;html=1;" parent="1" vertex="1">
          <mxGeometry x="229" y="120" width="160" height="30" as="geometry" />
        </mxCell>
        <mxCell id="5PS4r9_0_upMB3MBfYGu-5" value="@ComponentScan" style="rounded=1;whiteSpace=wrap;html=1;" parent="1" vertex="1">
          <mxGeometry x="239" y="165" width="120" height="30" as="geometry" />
        </mxCell>
        <mxCell id="5PS4r9_0_upMB3MBfYGu-10" style="edgeStyle=orthogonalEdgeStyle;rounded=0;orthogonalLoop=1;jettySize=auto;html=1;exitX=0.5;exitY=1;exitDx=0;exitDy=0;entryX=0;entryY=0.5;entryDx=0;entryDy=0;" parent="1" source="5PS4r9_0_upMB3MBfYGu-7" target="5PS4r9_0_upMB3MBfYGu-11" edge="1">
          <mxGeometry relative="1" as="geometry">
            <mxPoint x="319" y="290" as="targetPoint" />
          </mxGeometry>
        </mxCell>
        <mxCell id="f7SXbs6pzfq8MQyHs4yp-1" style="edgeStyle=orthogonalEdgeStyle;rounded=0;orthogonalLoop=1;jettySize=auto;html=1;exitX=0.5;exitY=1;exitDx=0;exitDy=0;entryX=0;entryY=0.5;entryDx=0;entryDy=0;" parent="1" source="5PS4r9_0_upMB3MBfYGu-7" target="f7SXbs6pzfq8MQyHs4yp-2" edge="1">
          <mxGeometry relative="1" as="geometry">
            <mxPoint x="380" y="280" as="targetPoint" />
          </mxGeometry>
        </mxCell>
        <mxCell id="5PS4r9_0_upMB3MBfYGu-7" value="@EnableAutoConfiguration" style="rounded=1;whiteSpace=wrap;html=1;" parent="1" vertex="1">
          <mxGeometry x="239" y="210" width="160" height="30" as="geometry" />
        </mxCell>
        <mxCell id="5PS4r9_0_upMB3MBfYGu-9" value="自动加载 SpringBoot 的默认配置" style="text;html=1;align=center;verticalAlign=middle;resizable=0;points=[];autosize=1;strokeColor=none;" parent="1" vertex="1">
          <mxGeometry x="403" y="215" width="190" height="20" as="geometry" />
        </mxCell>
        <mxCell id="5PS4r9_0_upMB3MBfYGu-12" style="edgeStyle=orthogonalEdgeStyle;rounded=0;orthogonalLoop=1;jettySize=auto;html=1;exitX=0.5;exitY=1;exitDx=0;exitDy=0;entryX=0.383;entryY=0.067;entryDx=0;entryDy=0;entryPerimeter=0;" parent="1" source="5PS4r9_0_upMB3MBfYGu-11" target="5PS4r9_0_upMB3MBfYGu-13" edge="1">
          <mxGeometry relative="1" as="geometry">
            <mxPoint x="419" y="330" as="targetPoint" />
          </mxGeometry>
        </mxCell>
        <mxCell id="5PS4r9_0_upMB3MBfYGu-11" value="借助@Import 注解" style="rounded=1;whiteSpace=wrap;html=1;" parent="1" vertex="1">
          <mxGeometry x="354" y="290" width="120" height="30" as="geometry" />
        </mxCell>
        <mxCell id="Lq-H3Xx7saDETIWOeCJo-4" style="edgeStyle=orthogonalEdgeStyle;rounded=0;orthogonalLoop=1;jettySize=auto;html=1;exitX=0.5;exitY=1;exitDx=0;exitDy=0;entryX=0;entryY=0.5;entryDx=0;entryDy=0;" parent="1" source="5PS4r9_0_upMB3MBfYGu-13" target="5PS4r9_0_upMB3MBfYGu-18" edge="1">
          <mxGeometry relative="1" as="geometry" />
        </mxCell>
        <mxCell id="Lq-H3Xx7saDETIWOeCJo-5" style="edgeStyle=orthogonalEdgeStyle;rounded=0;orthogonalLoop=1;jettySize=auto;html=1;exitX=0.5;exitY=1;exitDx=0;exitDy=0;entryX=0;entryY=0.5;entryDx=0;entryDy=0;" parent="1" source="5PS4r9_0_upMB3MBfYGu-13" target="5PS4r9_0_upMB3MBfYGu-20" edge="1">
          <mxGeometry relative="1" as="geometry" />
        </mxCell>
        <mxCell id="5PS4r9_0_upMB3MBfYGu-13" value="导入 AutoConfigurationImportSelector类" style="rounded=1;whiteSpace=wrap;html=1;" parent="1" vertex="1">
          <mxGeometry x="330" y="340" width="230" height="24" as="geometry" />
        </mxCell>
        <mxCell id="5PS4r9_0_upMB3MBfYGu-15" value="读取类路径下的 spring.factories文件内容" style="rounded=1;whiteSpace=wrap;html=1;" parent="1" vertex="1">
          <mxGeometry x="596" y="424" width="220" height="20" as="geometry" />
        </mxCell>
        <mxCell id="5PS4r9_0_upMB3MBfYGu-18" value="过滤加载到的类" style="rounded=1;whiteSpace=wrap;html=1;" parent="1" vertex="1">
          <mxGeometry x="593" y="470" width="120" height="20" as="geometry" />
        </mxCell>
        <mxCell id="5PS4r9_0_upMB3MBfYGu-20" value="将类添加到容器中" style="rounded=1;whiteSpace=wrap;html=1;" parent="1" vertex="1">
          <mxGeometry x="596" y="511" width="120" height="20" as="geometry" />
        </mxCell>
        <mxCell id="5PS4r9_0_upMB3MBfYGu-21" value="&lt;span style=&quot;color: rgb(106 , 115 , 125) ; background-color: rgb(250 , 250 , 250)&quot;&gt;&lt;font style=&quot;font-size: 12px&quot;&gt;所有包路径下 ： META-INFO/spring.fatcories&lt;/font&gt;&lt;/span&gt;" style="text;html=1;align=center;verticalAlign=middle;resizable=0;points=[];autosize=1;strokeColor=none;" parent="1" vertex="1">
          <mxGeometry x="486" y="392" width="250" height="18" as="geometry" />
        </mxCell>
        <mxCell id="Lq-H3Xx7saDETIWOeCJo-2" value="" style="endArrow=none;html=1;" parent="1" edge="1">
          <mxGeometry width="50" height="50" relative="1" as="geometry">
            <mxPoint y="80" as="sourcePoint" />
            <mxPoint x="820" y="80" as="targetPoint" />
          </mxGeometry>
        </mxCell>
        <mxCell id="Lq-H3Xx7saDETIWOeCJo-3" value="springboot 自动配置流程" style="edgeLabel;html=1;align=center;verticalAlign=middle;resizable=0;points=[];" parent="Lq-H3Xx7saDETIWOeCJo-2" vertex="1" connectable="0">
          <mxGeometry x="0.034" y="1" relative="1" as="geometry">
            <mxPoint x="-344" as="offset" />
          </mxGeometry>
        </mxCell>
        <mxCell id="f7SXbs6pzfq8MQyHs4yp-2" value="@AutoConfigurationPackage" style="rounded=1;whiteSpace=wrap;html=1;" parent="1" vertex="1">
          <mxGeometry x="380" y="250" width="180" height="30" as="geometry" />
        </mxCell>
        <mxCell id="f7SXbs6pzfq8MQyHs4yp-3" value="获取候选Bean" style="text;html=1;align=center;verticalAlign=middle;resizable=0;points=[];autosize=1;strokeColor=none;" parent="1" vertex="1">
          <mxGeometry x="736" y="391" width="90" height="20" as="geometry" />
        </mxCell>
        <mxCell id="MpyIza94_yYRXoHKSqZg-1" value="自动配置类 选择器 ， &lt;br&gt;该类可以实现配置类批量载入容器" style="text;html=1;align=left;verticalAlign=middle;resizable=0;points=[];autosize=1;strokeColor=none;" parent="1" vertex="1">
          <mxGeometry x="118" y="336" width="190" height="32" as="geometry" />
        </mxCell>
        <mxCell id="MpyIza94_yYRXoHKSqZg-2" value="核心方法 getCandidateConfigruations 目的在于候选的配置" style="text;html=1;align=center;verticalAlign=middle;resizable=0;points=[];autosize=1;strokeColor=none;" parent="1" vertex="1">
          <mxGeometry x="114" y="379" width="321" height="18" as="geometry" />
        </mxCell>
        <mxCell id="MpyIza94_yYRXoHKSqZg-3" value="" style="endArrow=classic;html=1;entryX=0;entryY=0.5;entryDx=0;entryDy=0;" parent="1" target="5PS4r9_0_upMB3MBfYGu-15" edge="1">
          <mxGeometry width="50" height="50" relative="1" as="geometry">
            <mxPoint x="446" y="434" as="sourcePoint" />
            <mxPoint x="669" y="423" as="targetPoint" />
          </mxGeometry>
        </mxCell>
        <mxCell id="MpyIza94_yYRXoHKSqZg-4" value="委托 SpringFactoriesLoader 去读取" style="text;html=1;align=center;verticalAlign=middle;resizable=0;points=[];autosize=1;strokeColor=none;" parent="1" vertex="1">
          <mxGeometry x="463" y="371" width="198" height="18" as="geometry" />
        </mxCell>
      </root>
    </mxGraphModel>
  </diagram>
  <diagram id="hn6NrzEXIqjuF2CO8Ll_" name="spring">
    <mxGraphModel dx="868" dy="492" grid="1" gridSize="10" guides="1" tooltips="1" connect="1" arrows="1" fold="1" page="1" pageScale="1" pageWidth="827" pageHeight="1169" math="0" shadow="0">
      <root>
        <mxCell id="orLs4Tc3gnN9HglfhHpP-0" />
        <mxCell id="orLs4Tc3gnN9HglfhHpP-1" parent="orLs4Tc3gnN9HglfhHpP-0" />
        <mxCell id="orLs4Tc3gnN9HglfhHpP-2" value="&lt;p style=&quot;line-height: 190%&quot;&gt;BeanFactoryPostProcessor , 在Spring 解析 BeanDefinition 之后 ， 根据 BeanDefinition 初始化之前 ，&amp;nbsp; 会调用 编写的 BeanFactoryPostProcessor 实现类 ， 并调用 postProcessBeanFactory方法&lt;/p&gt;" style="text;html=1;strokeColor=none;fillColor=none;align=left;verticalAlign=middle;whiteSpace=wrap;rounded=0;" vertex="1" parent="orLs4Tc3gnN9HglfhHpP-1">
          <mxGeometry x="30" y="30" width="780" height="40" as="geometry" />
        </mxCell>
        <mxCell id="orLs4Tc3gnN9HglfhHpP-4" value="Spring 何时解析BeanDefinition ?&amp;nbsp;&lt;br&gt;&lt;br&gt;Spring 何时回调BeanFactoryPostProcessor?&lt;br&gt;&lt;br&gt;Spring 何时初始化Bean?" style="text;html=1;strokeColor=none;fillColor=none;align=left;verticalAlign=middle;whiteSpace=wrap;rounded=0;" vertex="1" parent="orLs4Tc3gnN9HglfhHpP-1">
          <mxGeometry x="30" y="110" width="770" height="100" as="geometry" />
        </mxCell>
        <mxCell id="orLs4Tc3gnN9HglfhHpP-5" value="初始Reader 和 Scanner 两个对象 ， 使用 Scanner 进行扫描 ，使用Reader 进行读取 ， 将类包装成 BeanDefinition 并注册进容器" style="text;html=1;align=center;verticalAlign=middle;resizable=0;points=[];autosize=1;strokeColor=none;fillColor=none;" vertex="1" parent="orLs4Tc3gnN9HglfhHpP-1">
          <mxGeometry x="30" y="230" width="700" height="20" as="geometry" />
        </mxCell>
        <mxCell id="orLs4Tc3gnN9HglfhHpP-6" value="BeanFactoryPostProcessor&amp;nbsp; 初始化" style="text;html=1;strokeColor=none;fillColor=none;align=center;verticalAlign=middle;whiteSpace=wrap;rounded=0;fontColor=#66CC00;" vertex="1" parent="orLs4Tc3gnN9HglfhHpP-1">
          <mxGeometry x="40" y="300" width="200" height="20" as="geometry" />
        </mxCell>
        <mxCell id="orLs4Tc3gnN9HglfhHpP-8" style="edgeStyle=orthogonalEdgeStyle;rounded=0;orthogonalLoop=1;jettySize=auto;html=1;exitX=1;exitY=0.5;exitDx=0;exitDy=0;fontColor=#66CC00;" edge="1" parent="orLs4Tc3gnN9HglfhHpP-1" source="orLs4Tc3gnN9HglfhHpP-7">
          <mxGeometry relative="1" as="geometry">
            <mxPoint x="190" y="415" as="targetPoint" />
          </mxGeometry>
        </mxCell>
        <mxCell id="orLs4Tc3gnN9HglfhHpP-7" value="ApplicationContext" style="rounded=1;whiteSpace=wrap;html=1;fontColor=#66CC00;align=center;" vertex="1" parent="orLs4Tc3gnN9HglfhHpP-1">
          <mxGeometry x="40" y="400" width="110" height="30" as="geometry" />
        </mxCell>
        <mxCell id="orLs4Tc3gnN9HglfhHpP-10" style="edgeStyle=orthogonalEdgeStyle;rounded=0;orthogonalLoop=1;jettySize=auto;html=1;exitX=1;exitY=0.5;exitDx=0;exitDy=0;fontColor=#66CC00;" edge="1" parent="orLs4Tc3gnN9HglfhHpP-1" source="orLs4Tc3gnN9HglfhHpP-9">
          <mxGeometry relative="1" as="geometry">
            <mxPoint x="420" y="415" as="targetPoint" />
          </mxGeometry>
        </mxCell>
        <mxCell id="orLs4Tc3gnN9HglfhHpP-9" value="AbstractApplicationContext" style="rounded=1;whiteSpace=wrap;html=1;fontColor=#66CC00;align=center;" vertex="1" parent="orLs4Tc3gnN9HglfhHpP-1">
          <mxGeometry x="190" y="397.5" width="160" height="35" as="geometry" />
        </mxCell>
        <mxCell id="orLs4Tc3gnN9HglfhHpP-13" style="edgeStyle=orthogonalEdgeStyle;rounded=0;orthogonalLoop=1;jettySize=auto;html=1;exitX=1;exitY=0.5;exitDx=0;exitDy=0;fontColor=#66CC00;entryX=0.557;entryY=-0.133;entryDx=0;entryDy=0;entryPerimeter=0;" edge="1" parent="orLs4Tc3gnN9HglfhHpP-1" source="orLs4Tc3gnN9HglfhHpP-12" target="orLs4Tc3gnN9HglfhHpP-17">
          <mxGeometry relative="1" as="geometry">
            <mxPoint x="690" y="450" as="targetPoint" />
          </mxGeometry>
        </mxCell>
        <mxCell id="orLs4Tc3gnN9HglfhHpP-12" value="invokeBeanFactoryPostProcessor" style="rounded=1;whiteSpace=wrap;html=1;fontColor=#66CC00;align=center;" vertex="1" parent="orLs4Tc3gnN9HglfhHpP-1">
          <mxGeometry x="420" y="395" width="200" height="40" as="geometry" />
        </mxCell>
        <mxCell id="orLs4Tc3gnN9HglfhHpP-18" style="edgeStyle=orthogonalEdgeStyle;rounded=0;orthogonalLoop=1;jettySize=auto;html=1;exitX=0.5;exitY=1;exitDx=0;exitDy=0;fontColor=#66CC00;entryX=1;entryY=0.5;entryDx=0;entryDy=0;" edge="1" parent="orLs4Tc3gnN9HglfhHpP-1" source="orLs4Tc3gnN9HglfhHpP-17" target="orLs4Tc3gnN9HglfhHpP-19">
          <mxGeometry relative="1" as="geometry">
            <mxPoint x="550" y="550" as="targetPoint" />
          </mxGeometry>
        </mxCell>
        <mxCell id="orLs4Tc3gnN9HglfhHpP-17" value="BeanFactory.getBean(name, type)" style="rounded=1;whiteSpace=wrap;html=1;fontColor=#66CC00;align=center;" vertex="1" parent="orLs4Tc3gnN9HglfhHpP-1">
          <mxGeometry x="570" y="460" width="210" height="30" as="geometry" />
        </mxCell>
        <mxCell id="orLs4Tc3gnN9HglfhHpP-19" value="postProcessor.postProcessBeanFactory()" style="rounded=1;whiteSpace=wrap;html=1;fontColor=#66CC00;align=center;" vertex="1" parent="orLs4Tc3gnN9HglfhHpP-1">
          <mxGeometry x="230" y="530" width="250" height="30" as="geometry" />
        </mxCell>
        <mxCell id="orLs4Tc3gnN9HglfhHpP-21" style="edgeStyle=orthogonalEdgeStyle;rounded=0;orthogonalLoop=1;jettySize=auto;html=1;exitX=1;exitY=0.5;exitDx=0;exitDy=0;fontColor=#66CC00;" edge="1" parent="orLs4Tc3gnN9HglfhHpP-1" source="orLs4Tc3gnN9HglfhHpP-20">
          <mxGeometry relative="1" as="geometry">
            <mxPoint x="210" y="815" as="targetPoint" />
          </mxGeometry>
        </mxCell>
        <mxCell id="orLs4Tc3gnN9HglfhHpP-20" value="扫描读取定义类" style="rounded=1;whiteSpace=wrap;html=1;fontColor=#66CC00;align=center;" vertex="1" parent="orLs4Tc3gnN9HglfhHpP-1">
          <mxGeometry x="40" y="800" width="120" height="30" as="geometry" />
        </mxCell>
        <mxCell id="orLs4Tc3gnN9HglfhHpP-23" style="edgeStyle=orthogonalEdgeStyle;rounded=0;orthogonalLoop=1;jettySize=auto;html=1;exitX=1;exitY=0.5;exitDx=0;exitDy=0;fontColor=#66CC00;" edge="1" parent="orLs4Tc3gnN9HglfhHpP-1" source="orLs4Tc3gnN9HglfhHpP-22">
          <mxGeometry relative="1" as="geometry">
            <mxPoint x="380" y="815" as="targetPoint" />
          </mxGeometry>
        </mxCell>
        <mxCell id="orLs4Tc3gnN9HglfhHpP-22" value="BeanDefinition 保存" style="rounded=1;whiteSpace=wrap;html=1;fontColor=#66CC00;align=center;" vertex="1" parent="orLs4Tc3gnN9HglfhHpP-1">
          <mxGeometry x="210" y="797.5" width="120" height="35" as="geometry" />
        </mxCell>
        <mxCell id="orLs4Tc3gnN9HglfhHpP-24" value="DefaultListableBeanFactory" style="rounded=1;whiteSpace=wrap;html=1;fontColor=#66CC00;align=center;" vertex="1" parent="orLs4Tc3gnN9HglfhHpP-1">
          <mxGeometry x="380" y="785" width="170" height="35" as="geometry" />
        </mxCell>
        <mxCell id="orLs4Tc3gnN9HglfhHpP-25" value="Map -&amp;gt; beanDefinitionMap" style="text;html=1;align=center;verticalAlign=middle;resizable=0;points=[];autosize=1;strokeColor=none;fillColor=none;fontColor=#66CC00;" vertex="1" parent="orLs4Tc3gnN9HglfhHpP-1">
          <mxGeometry x="385" y="830" width="160" height="20" as="geometry" />
        </mxCell>
        <mxCell id="orLs4Tc3gnN9HglfhHpP-28" value="载入" style="text;html=1;align=center;verticalAlign=middle;resizable=0;points=[];autosize=1;strokeColor=none;fillColor=none;fontColor=#FF8000;" vertex="1" parent="orLs4Tc3gnN9HglfhHpP-1">
          <mxGeometry x="60" y="770" width="40" height="20" as="geometry" />
        </mxCell>
        <mxCell id="orLs4Tc3gnN9HglfhHpP-29" value="缓存中是否存在实例" style="rounded=1;whiteSpace=wrap;html=1;fontColor=#FF8000;align=center;" vertex="1" parent="orLs4Tc3gnN9HglfhHpP-1">
          <mxGeometry x="100" y="970" width="130" height="30" as="geometry" />
        </mxCell>
        <mxCell id="orLs4Tc3gnN9HglfhHpP-30" value="earlySingletonObjects 获取实例" style="rounded=1;whiteSpace=wrap;html=1;fontColor=#FF8000;align=center;" vertex="1" parent="orLs4Tc3gnN9HglfhHpP-1">
          <mxGeometry x="100" y="1010" width="180" height="30" as="geometry" />
        </mxCell>
        <mxCell id="orLs4Tc3gnN9HglfhHpP-31" value="创建ObjectFactory" style="rounded=1;whiteSpace=wrap;html=1;fontColor=#FF8000;align=center;" vertex="1" parent="orLs4Tc3gnN9HglfhHpP-1">
          <mxGeometry x="100" y="1050" width="180" height="30" as="geometry" />
        </mxCell>
      </root>
    </mxGraphModel>
  </diagram>
</mxfile>
